<?xml version="1.0" encoding="UTF-8" standalone="no"?>
<!DOCTYPE svg PUBLIC "-//W3C//DTD SVG 1.1//EN"
 "http://www.w3.org/Graphics/SVG/1.1/DTD/svg11.dtd">
<!-- Generated by graphviz version 13.1.2 (20250808.2320)
 -->
<!-- Title: disease_tree Pages: 1 -->
<svg width="932pt" height="1074pt"
 viewBox="0.00 0.00 932.00 1074.00" xmlns="http://www.w3.org/2000/svg" xmlns:xlink="http://www.w3.org/1999/xlink">
<g id="graph0" class="graph" transform="scale(1 1) rotate(0) translate(28.8 1044.78)">
<title>disease_tree</title>
<polygon fill="white" stroke="none" points="-28.8,28.8 -28.8,-1044.78 903.36,-1044.78 903.36,28.8 -28.8,28.8"/>
<text xml:space="preserve" text-anchor="middle" x="437.28" y="-998.68" font-family="Times,serif" font-size="14.00">Block I10&#45;I15 (Hypertensive diseases)</text>
<g id="clust1" class="cluster">
<title>cluster_legend</title>
<path fill="white" stroke="#d7dee8" d="M20,-667.48C20,-667.48 196.77,-667.48 196.77,-667.48 202.77,-667.48 208.77,-673.48 208.77,-679.48 208.77,-679.48 208.77,-971.48 208.77,-971.48 208.77,-977.48 202.77,-983.48 196.77,-983.48 196.77,-983.48 20,-983.48 20,-983.48 14,-983.48 8,-977.48 8,-971.48 8,-971.48 8,-679.48 8,-679.48 8,-673.48 14,-667.48 20,-667.48"/>
<text xml:space="preserve" text-anchor="middle" x="108.38" y="-969.02" font-family="Helvetica,sans-Serif" font-size="11.00">Route legend</text>
</g>
<!-- 1150 -->
<g id="node1" class="node">
<title>1150</title>
<path fill="#eef2f7" stroke="#4f5d75" stroke-width="0.8" d="M168.52,-650.95C168.52,-650.95 48.25,-650.95 48.25,-650.95 42.25,-650.95 36.25,-644.95 36.25,-638.95 36.25,-638.95 36.25,-622 36.25,-622 36.25,-616 42.25,-610 48.25,-610 48.25,-610 168.52,-610 168.52,-610 174.52,-610 180.52,-616 180.52,-622 180.52,-622 180.52,-638.95 180.52,-638.95 180.52,-644.95 174.52,-650.95 168.52,-650.95"/>
<text xml:space="preserve" text-anchor="middle" x="108.38" y="-637.85" font-family="Helvetica,sans-Serif" font-size="10.00">Block I10&#45;I15</text>
<text xml:space="preserve" text-anchor="middle" x="108.38" y="-626.6" font-family="Helvetica,sans-Serif" font-size="10.00">I10&#45;I15 Hypertensive diseases</text>
<text xml:space="preserve" text-anchor="middle" x="108.38" y="-615.35" font-family="Helvetica,sans-Serif" font-size="10.00">id=1150 | d=0</text>
</g>
<!-- 40520 -->
<g id="node2" class="node">
<title>40520</title>
<path fill="#4e79a7" stroke="#4f5d75" stroke-width="0.8" d="M407.91,-815.95C407.91,-815.95 263.64,-815.95 263.64,-815.95 257.64,-815.95 251.64,-809.95 251.64,-803.95 251.64,-803.95 251.64,-787 251.64,-787 251.64,-781 257.64,-775 263.64,-775 263.64,-775 407.91,-775 407.91,-775 413.91,-775 419.91,-781 419.91,-787 419.91,-787 419.91,-803.95 419.91,-803.95 419.91,-809.95 413.91,-815.95 407.91,-815.95"/>
<text xml:space="preserve" text-anchor="middle" x="335.78" y="-802.85" font-family="Helvetica,sans-Serif" font-size="10.00">I10</text>
<text xml:space="preserve" text-anchor="middle" x="335.78" y="-791.6" font-family="Helvetica,sans-Serif" font-size="10.00">I10 Essential (primary) hypertension</text>
<text xml:space="preserve" text-anchor="middle" x="335.78" y="-780.35" font-family="Helvetica,sans-Serif" font-size="10.00">id=40520 | d=1</text>
</g>
<!-- 1150&#45;&gt;40520 -->
<g id="edge1" class="edge">
<title>1150&#45;&gt;40520</title>
<path fill="none" stroke="#4e79a7" d="M180.68,-643.39C191.06,-647.77 200.89,-653.63 208.77,-661.48 242.14,-694.7 207.99,-728.67 240.77,-762.48 243.92,-765.72 247.4,-768.64 251.12,-771.28"/>
<polygon fill="#4e79a7" stroke="#4e79a7" points="249.92,-772.59 255.06,-773.87 251.84,-769.67 249.92,-772.59"/>
</g>
<!-- 40530 -->
<g id="node3" class="node">
<title>40530</title>
<path fill="#f28e2b" stroke="#4f5d75" stroke-width="0.8" d="M397.41,-749.95C397.41,-749.95 274.14,-749.95 274.14,-749.95 268.14,-749.95 262.14,-743.95 262.14,-737.95 262.14,-737.95 262.14,-721 262.14,-721 262.14,-715 268.14,-709 274.14,-709 274.14,-709 397.41,-709 397.41,-709 403.41,-709 409.41,-715 409.41,-721 409.41,-721 409.41,-737.95 409.41,-737.95 409.41,-743.95 403.41,-749.95 397.41,-749.95"/>
<text xml:space="preserve" text-anchor="middle" x="335.78" y="-736.85" font-family="Helvetica,sans-Serif" font-size="10.00">I11</text>
<text xml:space="preserve" text-anchor="middle" x="335.78" y="-725.6" font-family="Helvetica,sans-Serif" font-size="10.00">I11 Hypertensive heart disease</text>
<text xml:space="preserve" text-anchor="middle" x="335.78" y="-714.35" font-family="Helvetica,sans-Serif" font-size="10.00">id=40530 | d=1</text>
</g>
<!-- 1150&#45;&gt;40530 -->
<g id="edge2" class="edge">
<title>1150&#45;&gt;40530</title>
<path fill="none" stroke="#f28e2b" d="M180.83,-650.93C190.33,-654.18 199.86,-657.72 208.77,-661.48 238.7,-674.08 270.89,-691.52 295.24,-705.59"/>
<polygon fill="#f28e2b" stroke="#f28e2b" points="294.12,-706.96 299.32,-707.96 295.88,-703.93 294.12,-706.96"/>
</g>
<!-- 40560 -->
<g id="node6" class="node">
<title>40560</title>
<path fill="#e15759" stroke="#4f5d75" stroke-width="0.8" d="M397.04,-650.95C397.04,-650.95 274.52,-650.95 274.52,-650.95 268.52,-650.95 262.52,-644.95 262.52,-638.95 262.52,-638.95 262.52,-622 262.52,-622 262.52,-616 268.52,-610 274.52,-610 274.52,-610 397.04,-610 397.04,-610 403.04,-610 409.04,-616 409.04,-622 409.04,-622 409.04,-638.95 409.04,-638.95 409.04,-644.95 403.04,-650.95 397.04,-650.95"/>
<text xml:space="preserve" text-anchor="middle" x="335.78" y="-637.85" font-family="Helvetica,sans-Serif" font-size="10.00">I12</text>
<text xml:space="preserve" text-anchor="middle" x="335.78" y="-626.6" font-family="Helvetica,sans-Serif" font-size="10.00">I12 Hypertensive renal disease</text>
<text xml:space="preserve" text-anchor="middle" x="335.78" y="-615.35" font-family="Helvetica,sans-Serif" font-size="10.00">id=40560 | d=1</text>
</g>
<!-- 1150&#45;&gt;40560 -->
<g id="edge3" class="edge">
<title>1150&#45;&gt;40560</title>
<path fill="none" stroke="#e15759" d="M180.7,-630.48C204.62,-630.48 231.42,-630.48 255.88,-630.48"/>
<polygon fill="#e15759" stroke="#e15759" points="255.86,-632.23 260.86,-630.48 255.86,-628.73 255.86,-632.23"/>
</g>
<!-- 40590 -->
<g id="node9" class="node">
<title>40590</title>
<path fill="#76b7b2" stroke="#4f5d75" stroke-width="0.8" d="M418.79,-502.95C418.79,-502.95 252.77,-502.95 252.77,-502.95 246.77,-502.95 240.77,-496.95 240.77,-490.95 240.77,-490.95 240.77,-474 240.77,-474 240.77,-468 246.77,-462 252.77,-462 252.77,-462 418.79,-462 418.79,-462 424.79,-462 430.79,-468 430.79,-474 430.79,-474 430.79,-490.95 430.79,-490.95 430.79,-496.95 424.79,-502.95 418.79,-502.95"/>
<text xml:space="preserve" text-anchor="middle" x="335.78" y="-489.85" font-family="Helvetica,sans-Serif" font-size="10.00">I13</text>
<text xml:space="preserve" text-anchor="middle" x="335.78" y="-478.6" font-family="Helvetica,sans-Serif" font-size="10.00">I13 Hypertensive heart and renal disease</text>
<text xml:space="preserve" text-anchor="middle" x="335.78" y="-467.35" font-family="Helvetica,sans-Serif" font-size="10.00">id=40590 | d=1</text>
</g>
<!-- 1150&#45;&gt;40590 -->
<g id="edge4" class="edge">
<title>1150&#45;&gt;40590</title>
<path fill="none" stroke="#76b7b2" d="M140.73,-609.9C181.99,-582.8 254.41,-535.25 298.16,-506.52"/>
<polygon fill="#76b7b2" stroke="#76b7b2" points="298.86,-508.16 302.08,-503.95 296.94,-505.23 298.86,-508.16"/>
</g>
<!-- 40640 -->
<g id="node14" class="node">
<title>40640</title>
<path fill="#59a14f" stroke="#4f5d75" stroke-width="0.8" d="M390.29,-205.95C390.29,-205.95 281.27,-205.95 281.27,-205.95 275.27,-205.95 269.27,-199.95 269.27,-193.95 269.27,-193.95 269.27,-177 269.27,-177 269.27,-171 275.27,-165 281.27,-165 281.27,-165 390.29,-165 390.29,-165 396.29,-165 402.29,-171 402.29,-177 402.29,-177 402.29,-193.95 402.29,-193.95 402.29,-199.95 396.29,-205.95 390.29,-205.95"/>
<text xml:space="preserve" text-anchor="middle" x="335.78" y="-192.85" font-family="Helvetica,sans-Serif" font-size="10.00">I15</text>
<text xml:space="preserve" text-anchor="middle" x="335.78" y="-181.6" font-family="Helvetica,sans-Serif" font-size="10.00">I15 Secondary hypertension</text>
<text xml:space="preserve" text-anchor="middle" x="335.78" y="-170.35" font-family="Helvetica,sans-Serif" font-size="10.00">id=40640 | d=1</text>
</g>
<!-- 1150&#45;&gt;40640 -->
<g id="edge5" class="edge">
<title>1150&#45;&gt;40640</title>
<path fill="none" stroke="#59a14f" d="M119.95,-609.61C156.93,-536.61 280.43,-292.77 321.43,-211.84"/>
<polygon fill="#59a14f" stroke="#59a14f" points="322.85,-212.9 323.55,-207.65 319.73,-211.32 322.85,-212.9"/>
</g>
<!-- 40540 -->
<g id="node4" class="node">
<title>40540</title>
<path fill="#f28e2b" stroke="#4f5d75" stroke-width="0.8" d="M804.06,-832.95C804.06,-832.95 541.29,-832.95 541.29,-832.95 535.29,-832.95 529.29,-826.95 529.29,-820.95 529.29,-820.95 529.29,-804 529.29,-804 529.29,-798 535.29,-792 541.29,-792 541.29,-792 804.06,-792 804.06,-792 810.06,-792 816.06,-798 816.06,-804 816.06,-804 816.06,-820.95 816.06,-820.95 816.06,-826.95 810.06,-832.95 804.06,-832.95"/>
<text xml:space="preserve" text-anchor="middle" x="672.67" y="-819.85" font-family="Helvetica,sans-Serif" font-size="10.00">I110</text>
<text xml:space="preserve" text-anchor="middle" x="672.67" y="-808.6" font-family="Helvetica,sans-Serif" font-size="10.00">I11.0 Hypertensive heart disease with (congestive) heart failure</text>
<text xml:space="preserve" text-anchor="middle" x="672.67" y="-797.35" font-family="Helvetica,sans-Serif" font-size="10.00">id=40540 | d=2</text>
</g>
<!-- 40530&#45;&gt;40540 -->
<g id="edge6" class="edge">
<title>40530&#45;&gt;40540</title>
<path fill="none" stroke="#f28e2b" d="M397.93,-750.3C408.91,-754.22 420.23,-758.38 430.79,-762.48 448.8,-769.46 452.24,-774.09 470.79,-779.48 487.56,-784.34 505.35,-788.56 523.12,-792.19"/>
<polygon fill="#f28e2b" stroke="#f28e2b" points="522.42,-793.84 527.67,-793.11 523.11,-790.41 522.42,-793.84"/>
</g>
<!-- 40550 -->
<g id="node5" class="node">
<title>40550</title>
<path fill="#f28e2b" stroke="#4f5d75" stroke-width="0.8" d="M810.81,-766.95C810.81,-766.95 534.54,-766.95 534.54,-766.95 528.54,-766.95 522.54,-760.95 522.54,-754.95 522.54,-754.95 522.54,-738 522.54,-738 522.54,-732 528.54,-726 534.54,-726 534.54,-726 810.81,-726 810.81,-726 816.81,-726 822.81,-732 822.81,-738 822.81,-738 822.81,-754.95 822.81,-754.95 822.81,-760.95 816.81,-766.95 810.81,-766.95"/>
<text xml:space="preserve" text-anchor="middle" x="672.67" y="-753.85" font-family="Helvetica,sans-Serif" font-size="10.00">I119</text>
<text xml:space="preserve" text-anchor="middle" x="672.67" y="-742.6" font-family="Helvetica,sans-Serif" font-size="10.00">I11.9 Hypertensive heart disease without (congestive) heart failure</text>
<text xml:space="preserve" text-anchor="middle" x="672.67" y="-731.35" font-family="Helvetica,sans-Serif" font-size="10.00">id=40550 | d=2</text>
</g>
<!-- 40530&#45;&gt;40550 -->
<g id="edge7" class="edge">
<title>40530&#45;&gt;40550</title>
<path fill="none" stroke="#f28e2b" d="M409.45,-733.16C440.82,-734.76 478.8,-736.68 516.01,-738.57"/>
<polygon fill="#f28e2b" stroke="#f28e2b" points="515.87,-740.32 520.95,-738.82 516.04,-736.82 515.87,-740.32"/>
</g>
<!-- 40570 -->
<g id="node7" class="node">
<title>40570</title>
<path fill="#e15759" stroke="#4f5d75" stroke-width="0.8" d="M775.18,-700.95C775.18,-700.95 570.16,-700.95 570.16,-700.95 564.16,-700.95 558.16,-694.95 558.16,-688.95 558.16,-688.95 558.16,-672 558.16,-672 558.16,-666 564.16,-660 570.16,-660 570.16,-660 775.18,-660 775.18,-660 781.18,-660 787.18,-666 787.18,-672 787.18,-672 787.18,-688.95 787.18,-688.95 787.18,-694.95 781.18,-700.95 775.18,-700.95"/>
<text xml:space="preserve" text-anchor="middle" x="672.67" y="-687.85" font-family="Helvetica,sans-Serif" font-size="10.00">I120</text>
<text xml:space="preserve" text-anchor="middle" x="672.67" y="-676.6" font-family="Helvetica,sans-Serif" font-size="10.00">I12.0 Hypertensive renal disease with renal failure</text>
<text xml:space="preserve" text-anchor="middle" x="672.67" y="-665.35" font-family="Helvetica,sans-Serif" font-size="10.00">id=40570 | d=2</text>
</g>
<!-- 40560&#45;&gt;40570 -->
<g id="edge8" class="edge">
<title>40560&#45;&gt;40570</title>
<path fill="none" stroke="#e15759" d="M409.03,-641.26C450.62,-647.47 503.94,-655.43 551.66,-662.56"/>
<polygon fill="#e15759" stroke="#e15759" points="551.36,-664.28 556.56,-663.29 551.87,-660.82 551.36,-664.28"/>
</g>
<!-- 40580 -->
<g id="node8" class="node">
<title>40580</title>
<path fill="#e15759" stroke="#4f5d75" stroke-width="0.8" d="M781.93,-634.95C781.93,-634.95 563.41,-634.95 563.41,-634.95 557.41,-634.95 551.41,-628.95 551.41,-622.95 551.41,-622.95 551.41,-606 551.41,-606 551.41,-600 557.41,-594 563.41,-594 563.41,-594 781.93,-594 781.93,-594 787.93,-594 793.93,-600 793.93,-606 793.93,-606 793.93,-622.95 793.93,-622.95 793.93,-628.95 787.93,-634.95 781.93,-634.95"/>
<text xml:space="preserve" text-anchor="middle" x="672.67" y="-621.85" font-family="Helvetica,sans-Serif" font-size="10.00">I129</text>
<text xml:space="preserve" text-anchor="middle" x="672.67" y="-610.6" font-family="Helvetica,sans-Serif" font-size="10.00">I12.9 Hypertensive renal disease without renal failure</text>
<text xml:space="preserve" text-anchor="middle" x="672.67" y="-599.35" font-family="Helvetica,sans-Serif" font-size="10.00">id=40580 | d=2</text>
</g>
<!-- 40560&#45;&gt;40580 -->
<g id="edge9" class="edge">
<title>40560&#45;&gt;40580</title>
<path fill="none" stroke="#e15759" d="M409.03,-627.02C448.61,-625.13 498.81,-622.73 544.7,-620.54"/>
<polygon fill="#e15759" stroke="#e15759" points="544.72,-622.29 549.63,-620.31 544.55,-618.8 544.72,-622.29"/>
</g>
<!-- 40600 -->
<g id="node10" class="node">
<title>40600</title>
<path fill="#76b7b2" stroke="#4f5d75" stroke-width="0.8" d="M825.43,-568.95C825.43,-568.95 519.91,-568.95 519.91,-568.95 513.91,-568.95 507.91,-562.95 507.91,-556.95 507.91,-556.95 507.91,-540 507.91,-540 507.91,-534 513.91,-528 519.91,-528 519.91,-528 825.43,-528 825.43,-528 831.43,-528 837.43,-534 837.43,-540 837.43,-540 837.43,-556.95 837.43,-556.95 837.43,-562.95 831.43,-568.95 825.43,-568.95"/>
<text xml:space="preserve" text-anchor="middle" x="672.67" y="-555.85" font-family="Helvetica,sans-Serif" font-size="10.00">I130</text>
<text xml:space="preserve" text-anchor="middle" x="672.67" y="-544.6" font-family="Helvetica,sans-Serif" font-size="10.00">I13.0 Hypertensive heart and renal disease with (congestive) heart failure</text>
<text xml:space="preserve" text-anchor="middle" x="672.67" y="-533.35" font-family="Helvetica,sans-Serif" font-size="10.00">id=40600 | d=2</text>
</g>
<!-- 40590&#45;&gt;40600 -->
<g id="edge10" class="edge">
<title>40590&#45;&gt;40600</title>
<path fill="none" stroke="#76b7b2" d="M416.98,-503.31C434.64,-507.6 453.3,-511.89 470.79,-515.48 489.69,-519.35 509.67,-523.07 529.4,-526.53"/>
<polygon fill="#76b7b2" stroke="#76b7b2" points="529.08,-528.25 534.3,-527.38 529.68,-524.8 529.08,-528.25"/>
</g>
<!-- 40610 -->
<g id="node11" class="node">
<title>40610</title>
<path fill="#76b7b2" stroke="#4f5d75" stroke-width="0.8" d="M796.93,-502.95C796.93,-502.95 548.41,-502.95 548.41,-502.95 542.41,-502.95 536.41,-496.95 536.41,-490.95 536.41,-490.95 536.41,-474 536.41,-474 536.41,-468 542.41,-462 548.41,-462 548.41,-462 796.93,-462 796.93,-462 802.93,-462 808.93,-468 808.93,-474 808.93,-474 808.93,-490.95 808.93,-490.95 808.93,-496.95 802.93,-502.95 796.93,-502.95"/>
<text xml:space="preserve" text-anchor="middle" x="672.67" y="-489.85" font-family="Helvetica,sans-Serif" font-size="10.00">I131</text>
<text xml:space="preserve" text-anchor="middle" x="672.67" y="-478.6" font-family="Helvetica,sans-Serif" font-size="10.00">I13.1 Hypertensive heart and renal disease with renal failure</text>
<text xml:space="preserve" text-anchor="middle" x="672.67" y="-467.35" font-family="Helvetica,sans-Serif" font-size="10.00">id=40610 | d=2</text>
</g>
<!-- 40590&#45;&gt;40610 -->
<g id="edge11" class="edge">
<title>40590&#45;&gt;40610</title>
<path fill="none" stroke="#76b7b2" d="M430.96,-482.48C461.65,-482.48 496.43,-482.48 529.81,-482.48"/>
<polygon fill="#76b7b2" stroke="#76b7b2" points="529.52,-484.23 534.52,-482.48 529.52,-480.73 529.52,-484.23"/>
</g>
<!-- 40620 -->
<g id="node12" class="node">
<title>40620</title>
<path fill="#76b7b2" stroke="#4f5d75" stroke-width="0.8" d="M862.56,-436.95C862.56,-436.95 482.79,-436.95 482.79,-436.95 476.79,-436.95 470.79,-430.95 470.79,-424.95 470.79,-424.95 470.79,-408 470.79,-408 470.79,-402 476.79,-396 482.79,-396 482.79,-396 862.56,-396 862.56,-396 868.56,-396 874.56,-402 874.56,-408 874.56,-408 874.56,-424.95 874.56,-424.95 874.56,-430.95 868.56,-436.95 862.56,-436.95"/>
<text xml:space="preserve" text-anchor="middle" x="672.67" y="-423.85" font-family="Helvetica,sans-Serif" font-size="10.00">I132</text>
<text xml:space="preserve" text-anchor="middle" x="672.67" y="-412.6" font-family="Helvetica,sans-Serif" font-size="10.00">I13.2 Hypertensive heart and renal disease with both (congestive) heart failure and renal…</text>
<text xml:space="preserve" text-anchor="middle" x="672.67" y="-401.35" font-family="Helvetica,sans-Serif" font-size="10.00">id=40620 | d=2</text>
</g>
<!-- 40590&#45;&gt;40620 -->
<g id="edge12" class="edge">
<title>40590&#45;&gt;40620</title>
<path fill="none" stroke="#76b7b2" d="M416.98,-461.64C434.64,-457.35 453.3,-453.06 470.79,-449.48 489.69,-445.6 509.67,-441.88 529.4,-438.42"/>
<polygon fill="#76b7b2" stroke="#76b7b2" points="529.68,-440.15 534.3,-437.57 529.08,-436.7 529.68,-440.15"/>
</g>
<!-- 40630 -->
<g id="node13" class="node">
<title>40630</title>
<path fill="#76b7b2" stroke="#4f5d75" stroke-width="0.8" d="M787.56,-370.95C787.56,-370.95 557.79,-370.95 557.79,-370.95 551.79,-370.95 545.79,-364.95 545.79,-358.95 545.79,-358.95 545.79,-342 545.79,-342 545.79,-336 551.79,-330 557.79,-330 557.79,-330 787.56,-330 787.56,-330 793.56,-330 799.56,-336 799.56,-342 799.56,-342 799.56,-358.95 799.56,-358.95 799.56,-364.95 793.56,-370.95 787.56,-370.95"/>
<text xml:space="preserve" text-anchor="middle" x="672.67" y="-357.85" font-family="Helvetica,sans-Serif" font-size="10.00">I139</text>
<text xml:space="preserve" text-anchor="middle" x="672.67" y="-346.6" font-family="Helvetica,sans-Serif" font-size="10.00">I13.9 Hypertensive heart and renal disease, unspecified</text>
<text xml:space="preserve" text-anchor="middle" x="672.67" y="-335.35" font-family="Helvetica,sans-Serif" font-size="10.00">id=40630 | d=2</text>
</g>
<!-- 40590&#45;&gt;40630 -->
<g id="edge13" class="edge">
<title>40590&#45;&gt;40630</title>
<path fill="none" stroke="#76b7b2" d="M357.97,-461.71C382.82,-438.67 426.29,-402.27 470.79,-383.48 492.24,-374.42 515.94,-367.84 539.33,-363.06"/>
<polygon fill="#76b7b2" stroke="#76b7b2" points="539.54,-364.8 544.1,-362.12 538.86,-361.37 539.54,-364.8"/>
</g>
<!-- 40650 -->
<g id="node15" class="node">
<title>40650</title>
<path fill="#59a14f" stroke="#4f5d75" stroke-width="0.8" d="M738.06,-304.95C738.06,-304.95 607.29,-304.95 607.29,-304.95 601.29,-304.95 595.29,-298.95 595.29,-292.95 595.29,-292.95 595.29,-276 595.29,-276 595.29,-270 601.29,-264 607.29,-264 607.29,-264 738.06,-264 738.06,-264 744.06,-264 750.06,-270 750.06,-276 750.06,-276 750.06,-292.95 750.06,-292.95 750.06,-298.95 744.06,-304.95 738.06,-304.95"/>
<text xml:space="preserve" text-anchor="middle" x="672.67" y="-291.85" font-family="Helvetica,sans-Serif" font-size="10.00">I150</text>
<text xml:space="preserve" text-anchor="middle" x="672.67" y="-280.6" font-family="Helvetica,sans-Serif" font-size="10.00">I15.0 Renovascular hypertension</text>
<text xml:space="preserve" text-anchor="middle" x="672.67" y="-269.35" font-family="Helvetica,sans-Serif" font-size="10.00">id=40650 | d=2</text>
</g>
<!-- 40640&#45;&gt;40650 -->
<g id="edge14" class="edge">
<title>40640&#45;&gt;40650</title>
<path fill="none" stroke="#59a14f" d="M371.7,-206.24C398.06,-221.02 435.6,-240.19 470.79,-251.48 508.65,-263.61 552.03,-271.45 588.76,-276.43"/>
<polygon fill="#59a14f" stroke="#59a14f" points="588.38,-278.15 593.57,-277.07 588.84,-274.68 588.38,-278.15"/>
</g>
<!-- 40660 -->
<g id="node16" class="node">
<title>40660</title>
<path fill="#59a14f" stroke="#4f5d75" stroke-width="0.8" d="M783.06,-238.95C783.06,-238.95 562.29,-238.95 562.29,-238.95 556.29,-238.95 550.29,-232.95 550.29,-226.95 550.29,-226.95 550.29,-210 550.29,-210 550.29,-204 556.29,-198 562.29,-198 562.29,-198 783.06,-198 783.06,-198 789.06,-198 795.06,-204 795.06,-210 795.06,-210 795.06,-226.95 795.06,-226.95 795.06,-232.95 789.06,-238.95 783.06,-238.95"/>
<text xml:space="preserve" text-anchor="middle" x="672.67" y="-225.85" font-family="Helvetica,sans-Serif" font-size="10.00">I151</text>
<text xml:space="preserve" text-anchor="middle" x="672.67" y="-214.6" font-family="Helvetica,sans-Serif" font-size="10.00">I15.1 Hypertension secondary to other renal disorders</text>
<text xml:space="preserve" text-anchor="middle" x="672.67" y="-203.35" font-family="Helvetica,sans-Serif" font-size="10.00">id=40660 | d=2</text>
</g>
<!-- 40640&#45;&gt;40660 -->
<g id="edge15" class="edge">
<title>40640&#45;&gt;40660</title>
<path fill="none" stroke="#59a14f" d="M402.54,-191.96C442.74,-195.92 495.52,-201.12 543.69,-205.86"/>
<polygon fill="#59a14f" stroke="#59a14f" points="543.49,-207.6 548.64,-206.35 543.83,-204.12 543.49,-207.6"/>
</g>
<!-- 40670 -->
<g id="node17" class="node">
<title>40670</title>
<path fill="#59a14f" stroke="#4f5d75" stroke-width="0.8" d="M781.18,-172.95C781.18,-172.95 564.16,-172.95 564.16,-172.95 558.16,-172.95 552.16,-166.95 552.16,-160.95 552.16,-160.95 552.16,-144 552.16,-144 552.16,-138 558.16,-132 564.16,-132 564.16,-132 781.18,-132 781.18,-132 787.18,-132 793.18,-138 793.18,-144 793.18,-144 793.18,-160.95 793.18,-160.95 793.18,-166.95 787.18,-172.95 781.18,-172.95"/>
<text xml:space="preserve" text-anchor="middle" x="672.67" y="-159.85" font-family="Helvetica,sans-Serif" font-size="10.00">I152</text>
<text xml:space="preserve" text-anchor="middle" x="672.67" y="-148.6" font-family="Helvetica,sans-Serif" font-size="10.00">I15.2 Hypertension secondary to endocrine disorders</text>
<text xml:space="preserve" text-anchor="middle" x="672.67" y="-137.35" font-family="Helvetica,sans-Serif" font-size="10.00">id=40670 | d=2</text>
</g>
<!-- 40640&#45;&gt;40670 -->
<g id="edge16" class="edge">
<title>40640&#45;&gt;40670</title>
<path fill="none" stroke="#59a14f" d="M402.54,-178.99C443.28,-174.98 496.94,-169.69 545.62,-164.9"/>
<polygon fill="#59a14f" stroke="#59a14f" points="545.53,-166.66 550.33,-164.43 545.18,-163.18 545.53,-166.66"/>
</g>
<!-- 40680 -->
<g id="node18" class="node">
<title>40680</title>
<path fill="#59a14f" stroke="#4f5d75" stroke-width="0.8" d="M744.06,-106.95C744.06,-106.95 601.29,-106.95 601.29,-106.95 595.29,-106.95 589.29,-100.95 589.29,-94.95 589.29,-94.95 589.29,-78 589.29,-78 589.29,-72 595.29,-66 601.29,-66 601.29,-66 744.06,-66 744.06,-66 750.06,-66 756.06,-72 756.06,-78 756.06,-78 756.06,-94.95 756.06,-94.95 756.06,-100.95 750.06,-106.95 744.06,-106.95"/>
<text xml:space="preserve" text-anchor="middle" x="672.67" y="-93.85" font-family="Helvetica,sans-Serif" font-size="10.00">I158</text>
<text xml:space="preserve" text-anchor="middle" x="672.67" y="-82.6" font-family="Helvetica,sans-Serif" font-size="10.00">I15.8 Other secondary hypertension</text>
<text xml:space="preserve" text-anchor="middle" x="672.67" y="-71.35" font-family="Helvetica,sans-Serif" font-size="10.00">id=40680 | d=2</text>
</g>
<!-- 40640&#45;&gt;40680 -->
<g id="edge17" class="edge">
<title>40640&#45;&gt;40680</title>
<path fill="none" stroke="#59a14f" d="M371.7,-164.71C398.06,-149.93 435.6,-130.76 470.79,-119.48 506.74,-107.95 547.67,-100.3 583.16,-95.29"/>
<polygon fill="#59a14f" stroke="#59a14f" points="583.04,-97.07 587.76,-94.66 582.57,-93.61 583.04,-97.07"/>
</g>
<!-- 40690 -->
<g id="node19" class="node">
<title>40690</title>
<path fill="#59a14f" stroke="#4f5d75" stroke-width="0.8" d="M757.56,-40.95C757.56,-40.95 587.79,-40.95 587.79,-40.95 581.79,-40.95 575.79,-34.95 575.79,-28.95 575.79,-28.95 575.79,-12 575.79,-12 575.79,-6 581.79,0 587.79,0 587.79,0 757.56,0 757.56,0 763.56,0 769.56,-6 769.56,-12 769.56,-12 769.56,-28.95 769.56,-28.95 769.56,-34.95 763.56,-40.95 757.56,-40.95"/>
<text xml:space="preserve" text-anchor="middle" x="672.67" y="-27.85" font-family="Helvetica,sans-Serif" font-size="10.00">I159</text>
<text xml:space="preserve" text-anchor="middle" x="672.67" y="-16.6" font-family="Helvetica,sans-Serif" font-size="10.00">I15.9 Seconday hypertension, unspecified</text>
<text xml:space="preserve" text-anchor="middle" x="672.67" y="-5.35" font-family="Helvetica,sans-Serif" font-size="10.00">id=40690 | d=2</text>
</g>
<!-- 40640&#45;&gt;40690 -->
<g id="edge18" class="edge">
<title>40640&#45;&gt;40690</title>
<path fill="none" stroke="#59a14f" d="M350.98,-165.02C372.93,-135.16 418.1,-80.26 470.79,-53.48 500.89,-38.17 536.51,-29.69 569.33,-25.08"/>
<polygon fill="#59a14f" stroke="#59a14f" points="569.21,-26.86 573.93,-24.46 568.74,-23.39 569.21,-26.86"/>
</g>
<!-- legend_0 -->
<g id="node20" class="node">
<title>legend_0</title>
<path fill="#4e79a7" stroke="#4f5d75" stroke-width="0.8" d="M188.77,-711.48C188.77,-711.48 28,-711.48 28,-711.48 22,-711.48 16,-705.48 16,-699.48 16,-699.48 16,-687.48 16,-687.48 16,-681.48 22,-675.48 28,-675.48 28,-675.48 188.77,-675.48 188.77,-675.48 194.77,-675.48 200.77,-681.48 200.77,-687.48 200.77,-687.48 200.77,-699.48 200.77,-699.48 200.77,-705.48 194.77,-711.48 188.77,-711.48"/>
<text xml:space="preserve" text-anchor="middle" x="108.38" y="-689.6" font-family="Helvetica,sans-Serif" font-size="10.00">I10: I10 Essential (primary) hypertens…</text>
</g>
<!-- legend_1 -->
<g id="node21" class="node">
<title>legend_1</title>
<path fill="#f28e2b" stroke="#4f5d75" stroke-width="0.8" d="M179.77,-772.48C179.77,-772.48 37,-772.48 37,-772.48 31,-772.48 25,-766.48 25,-760.48 25,-760.48 25,-748.48 25,-748.48 25,-742.48 31,-736.48 37,-736.48 37,-736.48 179.77,-736.48 179.77,-736.48 185.77,-736.48 191.77,-742.48 191.77,-748.48 191.77,-748.48 191.77,-760.48 191.77,-760.48 191.77,-766.48 185.77,-772.48 179.77,-772.48"/>
<text xml:space="preserve" text-anchor="middle" x="108.38" y="-750.6" font-family="Helvetica,sans-Serif" font-size="10.00">I11: I11 Hypertensive heart disease</text>
</g>
<!-- legend_2 -->
<g id="node22" class="node">
<title>legend_2</title>
<path fill="#e15759" stroke="#4f5d75" stroke-width="0.8" d="M179.39,-833.48C179.39,-833.48 37.37,-833.48 37.37,-833.48 31.37,-833.48 25.37,-827.48 25.37,-821.48 25.37,-821.48 25.37,-809.48 25.37,-809.48 25.37,-803.48 31.37,-797.48 37.37,-797.48 37.37,-797.48 179.39,-797.48 179.39,-797.48 185.39,-797.48 191.39,-803.48 191.39,-809.48 191.39,-809.48 191.39,-821.48 191.39,-821.48 191.39,-827.48 185.39,-833.48 179.39,-833.48"/>
<text xml:space="preserve" text-anchor="middle" x="108.38" y="-811.6" font-family="Helvetica,sans-Serif" font-size="10.00">I12: I12 Hypertensive renal disease</text>
</g>
<!-- legend_3 -->
<g id="node23" class="node">
<title>legend_3</title>
<path fill="#76b7b2" stroke="#4f5d75" stroke-width="0.8" d="M187.64,-894.48C187.64,-894.48 29.13,-894.48 29.13,-894.48 23.13,-894.48 17.12,-888.48 17.12,-882.48 17.12,-882.48 17.12,-870.48 17.12,-870.48 17.12,-864.48 23.12,-858.48 29.12,-858.48 29.12,-858.48 187.64,-858.48 187.64,-858.48 193.64,-858.48 199.64,-864.48 199.64,-870.48 199.64,-870.48 199.64,-882.48 199.64,-882.48 199.64,-888.48 193.64,-894.48 187.64,-894.48"/>
<text xml:space="preserve" text-anchor="middle" x="108.38" y="-872.6" font-family="Helvetica,sans-Serif" font-size="10.00">I13: I13 Hypertensive heart and renal…</text>
</g>
<!-- legend_4 -->
<g id="node24" class="node">
<title>legend_4</title>
<path fill="#59a14f" stroke="#4f5d75" stroke-width="0.8" d="M172.64,-955.48C172.64,-955.48 44.13,-955.48 44.13,-955.48 38.12,-955.48 32.12,-949.48 32.12,-943.48 32.12,-943.48 32.12,-931.48 32.12,-931.48 32.12,-925.48 38.12,-919.48 44.12,-919.48 44.12,-919.48 172.64,-919.48 172.64,-919.48 178.64,-919.48 184.64,-925.48 184.64,-931.48 184.64,-931.48 184.64,-943.48 184.64,-943.48 184.64,-949.48 178.64,-955.48 172.64,-955.48"/>
<text xml:space="preserve" text-anchor="middle" x="108.38" y="-933.6" font-family="Helvetica,sans-Serif" font-size="10.00">I15: I15 Secondary hypertension</text>
</g>
</g>
</svg>
