<?xml version="1.0" encoding="UTF-8" standalone="no"?>
<!DOCTYPE svg PUBLIC "-//W3C//DTD SVG 1.1//EN"
 "http://www.w3.org/Graphics/SVG/1.1/DTD/svg11.dtd">
<!-- Generated by graphviz version 13.1.2 (20250808.2320)
 -->
<!-- Title: disease_tree Pages: 1 -->
<svg width="1435pt" height="1049pt"
 viewBox="0.00 0.00 1435.00 1049.00" xmlns="http://www.w3.org/2000/svg" xmlns:xlink="http://www.w3.org/1999/xlink">
<g id="graph0" class="graph" transform="scale(1 1) rotate(0) translate(28.8 1020.3)">
<title>disease_tree</title>
<polygon fill="white" stroke="none" points="-28.8,28.8 -28.8,-1020.3 1406.54,-1020.3 1406.54,28.8 -28.8,28.8"/>
<text xml:space="preserve" text-anchor="middle" x="688.87" y="-974.2" font-family="Times,serif" font-size="14.00">Disease&#45;90 subtree (focused paths)</text>
<g id="clust1" class="cluster">
<title>cluster_legend</title>
<path fill="white" stroke="#d7dee8" d="M20,-338C20,-338 246.27,-338 246.27,-338 252.27,-338 258.27,-344 258.27,-350 258.27,-350 258.27,-947 258.27,-947 258.27,-953 252.27,-959 246.27,-959 246.27,-959 20,-959 20,-959 14,-959 8,-953 8,-947 8,-947 8,-350 8,-350 8,-344 14,-338 20,-338"/>
<text xml:space="preserve" text-anchor="middle" x="133.13" y="-944.55" font-family="Helvetica,sans-Serif" font-size="11.00">Route legend</text>
</g>
<!-- 90 -->
<g id="node1" class="node">
<title>90</title>
<path fill="#eef2f7" stroke="#4f5d75" stroke-width="0.8" d="M228.15,-321.48C228.15,-321.48 38.12,-321.48 38.12,-321.48 32.12,-321.48 26.12,-315.48 26.12,-309.48 26.12,-309.48 26.12,-292.52 26.12,-292.52 26.12,-286.52 32.12,-280.52 38.12,-280.52 38.12,-280.52 228.15,-280.52 228.15,-280.52 234.15,-280.52 240.15,-286.52 240.15,-292.52 240.15,-292.52 240.15,-309.48 240.15,-309.48 240.15,-315.48 234.15,-321.48 228.15,-321.48"/>
<text xml:space="preserve" text-anchor="middle" x="133.13" y="-308.38" font-family="Helvetica,sans-Serif" font-size="10.00">Chapter IX</text>
<text xml:space="preserve" text-anchor="middle" x="133.13" y="-297.12" font-family="Helvetica,sans-Serif" font-size="10.00">Chapter IX Diseases of the circulatory system</text>
<text xml:space="preserve" text-anchor="middle" x="133.13" y="-285.88" font-family="Helvetica,sans-Serif" font-size="10.00">id=90 | d=0</text>
</g>
<!-- 1130 -->
<g id="node2" class="node">
<title>1130</title>
<path fill="#4e79a7" stroke="#4f5d75" stroke-width="0.8" d="M559.99,-668.48C559.99,-668.48 444.22,-668.48 444.22,-668.48 438.22,-668.48 432.22,-662.48 432.22,-656.48 432.22,-656.48 432.22,-639.52 432.22,-639.52 432.22,-633.52 438.22,-627.52 444.22,-627.52 444.22,-627.52 559.99,-627.52 559.99,-627.52 565.99,-627.52 571.99,-633.52 571.99,-639.52 571.99,-639.52 571.99,-656.48 571.99,-656.48 571.99,-662.48 565.99,-668.48 559.99,-668.48"/>
<text xml:space="preserve" text-anchor="middle" x="502.1" y="-655.38" font-family="Helvetica,sans-Serif" font-size="10.00">Block I00&#45;I02</text>
<text xml:space="preserve" text-anchor="middle" x="502.1" y="-644.12" font-family="Helvetica,sans-Serif" font-size="10.00">I00&#45;I02 Acute rheumatic fever</text>
<text xml:space="preserve" text-anchor="middle" x="502.1" y="-632.88" font-family="Helvetica,sans-Serif" font-size="10.00">id=1130 | d=1</text>
</g>
<!-- 90&#45;&gt;1130 -->
<g id="edge1" class="edge">
<title>90&#45;&gt;1130</title>
<path fill="none" stroke="#4e79a7" d="M240.3,-317.52C246.96,-321.46 253.06,-326.23 258.27,-332 325.36,-406.32 229.76,-475.23 290.27,-555 322.78,-597.86 379.3,-621.35 425.65,-634"/>
<polygon fill="#4e79a7" stroke="#4e79a7" points="425.08,-635.66 430.36,-635.25 425.98,-632.28 425.08,-635.66"/>
</g>
<!-- 1140 -->
<g id="node5" class="node">
<title>1140</title>
<path fill="#f28e2b" stroke="#4f5d75" stroke-width="0.8" d="M585.49,-542.48C585.49,-542.48 418.72,-542.48 418.72,-542.48 412.72,-542.48 406.72,-536.48 406.72,-530.48 406.72,-530.48 406.72,-513.52 406.72,-513.52 406.72,-507.52 412.72,-501.52 418.72,-501.52 418.72,-501.52 585.49,-501.52 585.49,-501.52 591.49,-501.52 597.49,-507.52 597.49,-513.52 597.49,-513.52 597.49,-530.48 597.49,-530.48 597.49,-536.48 591.49,-542.48 585.49,-542.48"/>
<text xml:space="preserve" text-anchor="middle" x="502.1" y="-529.38" font-family="Helvetica,sans-Serif" font-size="10.00">Block I05&#45;I09</text>
<text xml:space="preserve" text-anchor="middle" x="502.1" y="-518.12" font-family="Helvetica,sans-Serif" font-size="10.00">I05&#45;I09 Chronic rheumatic heart diseases</text>
<text xml:space="preserve" text-anchor="middle" x="502.1" y="-506.88" font-family="Helvetica,sans-Serif" font-size="10.00">id=1140 | d=1</text>
</g>
<!-- 90&#45;&gt;1140 -->
<g id="edge2" class="edge">
<title>90&#45;&gt;1140</title>
<path fill="none" stroke="#f28e2b" d="M240.39,-319.23C246.85,-322.79 252.9,-327.01 258.27,-332 291.53,-362.89 259.76,-395.38 290.27,-429 320.96,-462.81 366.19,-484.96 406.9,-499.12"/>
<polygon fill="#f28e2b" stroke="#f28e2b" points="406.14,-500.71 411.44,-500.67 407.27,-497.4 406.14,-500.71"/>
</g>
<!-- 1150 -->
<g id="node8" class="node">
<title>1150</title>
<path fill="#e15759" stroke="#4f5d75" stroke-width="0.8" d="M562.24,-416.48C562.24,-416.48 441.97,-416.48 441.97,-416.48 435.97,-416.48 429.97,-410.48 429.97,-404.48 429.97,-404.48 429.97,-387.52 429.97,-387.52 429.97,-381.52 435.97,-375.52 441.97,-375.52 441.97,-375.52 562.24,-375.52 562.24,-375.52 568.24,-375.52 574.24,-381.52 574.24,-387.52 574.24,-387.52 574.24,-404.48 574.24,-404.48 574.24,-410.48 568.24,-416.48 562.24,-416.48"/>
<text xml:space="preserve" text-anchor="middle" x="502.1" y="-403.38" font-family="Helvetica,sans-Serif" font-size="10.00">Block I10&#45;I15</text>
<text xml:space="preserve" text-anchor="middle" x="502.1" y="-392.12" font-family="Helvetica,sans-Serif" font-size="10.00">I10&#45;I15 Hypertensive diseases</text>
<text xml:space="preserve" text-anchor="middle" x="502.1" y="-380.88" font-family="Helvetica,sans-Serif" font-size="10.00">id=1150 | d=1</text>
</g>
<!-- 90&#45;&gt;1150 -->
<g id="edge3" class="edge">
<title>90&#45;&gt;1150</title>
<path fill="none" stroke="#e15759" d="M218.31,-321.86C231.68,-325.22 245.36,-328.69 258.27,-332 313.65,-346.21 376.02,-362.66 423.68,-375.32"/>
<polygon fill="#e15759" stroke="#e15759" points="422.97,-376.94 428.25,-376.53 423.87,-373.56 422.97,-376.94"/>
</g>
<!-- 1160 -->
<g id="node11" class="node">
<title>1160</title>
<path fill="#76b7b2" stroke="#4f5d75" stroke-width="0.8" d="M568.24,-321.48C568.24,-321.48 435.97,-321.48 435.97,-321.48 429.97,-321.48 423.97,-315.48 423.97,-309.48 423.97,-309.48 423.97,-292.52 423.97,-292.52 423.97,-286.52 429.97,-280.52 435.97,-280.52 435.97,-280.52 568.24,-280.52 568.24,-280.52 574.24,-280.52 580.24,-286.52 580.24,-292.52 580.24,-292.52 580.24,-309.48 580.24,-309.48 580.24,-315.48 574.24,-321.48 568.24,-321.48"/>
<text xml:space="preserve" text-anchor="middle" x="502.1" y="-308.38" font-family="Helvetica,sans-Serif" font-size="10.00">Block I20&#45;I25</text>
<text xml:space="preserve" text-anchor="middle" x="502.1" y="-297.12" font-family="Helvetica,sans-Serif" font-size="10.00">I20&#45;I25 Ischaemic heart diseases</text>
<text xml:space="preserve" text-anchor="middle" x="502.1" y="-285.88" font-family="Helvetica,sans-Serif" font-size="10.00">id=1160 | d=1</text>
</g>
<!-- 90&#45;&gt;1160 -->
<g id="edge4" class="edge">
<title>90&#45;&gt;1160</title>
<path fill="none" stroke="#76b7b2" d="M240.28,-301C296.62,-301 364.88,-301 417.43,-301"/>
<polygon fill="#76b7b2" stroke="#76b7b2" points="417.25,-302.75 422.25,-301 417.25,-299.25 417.25,-302.75"/>
</g>
<!-- 1170 -->
<g id="node14" class="node">
<title>1170</title>
<path fill="#59a14f" stroke="#4f5d75" stroke-width="0.8" d="M649.99,-227.47C649.99,-227.47 354.22,-227.47 354.22,-227.47 348.22,-227.47 342.22,-221.47 342.22,-215.47 342.22,-215.47 342.22,-198.53 342.22,-198.53 342.22,-192.53 348.22,-186.53 354.22,-186.53 354.22,-186.53 649.99,-186.53 649.99,-186.53 655.99,-186.53 661.99,-192.53 661.99,-198.53 661.99,-198.53 661.99,-215.47 661.99,-215.47 661.99,-221.47 655.99,-227.47 649.99,-227.47"/>
<text xml:space="preserve" text-anchor="middle" x="502.1" y="-214.38" font-family="Helvetica,sans-Serif" font-size="10.00">Block I26&#45;I28</text>
<text xml:space="preserve" text-anchor="middle" x="502.1" y="-203.12" font-family="Helvetica,sans-Serif" font-size="10.00">I26&#45;I28 Pulmonary heart disease and diseases of pulmonary circulation</text>
<text xml:space="preserve" text-anchor="middle" x="502.1" y="-191.88" font-family="Helvetica,sans-Serif" font-size="10.00">id=1170 | d=1</text>
</g>
<!-- 90&#45;&gt;1170 -->
<g id="edge5" class="edge">
<title>90&#45;&gt;1170</title>
<path fill="none" stroke="#59a14f" d="M215.58,-280.14C274.37,-265.08 353.66,-244.77 413.77,-229.37"/>
<polygon fill="#59a14f" stroke="#59a14f" points="414.01,-231.11 418.42,-228.18 413.15,-227.72 414.01,-231.11"/>
</g>
<!-- 1180 -->
<g id="node17" class="node">
<title>1180</title>
<path fill="#edc948" stroke="#4f5d75" stroke-width="0.8" d="M574.61,-131.47C574.61,-131.47 429.59,-131.47 429.59,-131.47 423.59,-131.47 417.59,-125.47 417.59,-119.47 417.59,-119.47 417.59,-102.53 417.59,-102.53 417.59,-96.53 423.59,-90.53 429.59,-90.53 429.59,-90.53 574.61,-90.53 574.61,-90.53 580.61,-90.53 586.61,-96.53 586.61,-102.53 586.61,-102.53 586.61,-119.47 586.61,-119.47 586.61,-125.47 580.61,-131.47 574.61,-131.47"/>
<text xml:space="preserve" text-anchor="middle" x="502.1" y="-118.38" font-family="Helvetica,sans-Serif" font-size="10.00">Block I30&#45;I52</text>
<text xml:space="preserve" text-anchor="middle" x="502.1" y="-107.12" font-family="Helvetica,sans-Serif" font-size="10.00">I30&#45;I52 Other forms of heart disease</text>
<text xml:space="preserve" text-anchor="middle" x="502.1" y="-95.88" font-family="Helvetica,sans-Serif" font-size="10.00">id=1180 | d=1</text>
</g>
<!-- 90&#45;&gt;1180 -->
<g id="edge6" class="edge">
<title>90&#45;&gt;1180</title>
<path fill="none" stroke="#edc948" d="M153.95,-280.44C181.89,-252.56 235.6,-202.92 290.27,-174 327.85,-154.12 372.61,-139.62 411.19,-129.57"/>
<polygon fill="#edc948" stroke="#edc948" points="411.46,-131.31 415.86,-128.38 410.59,-127.92 411.46,-131.31"/>
</g>
<!-- ellipsis__90 -->
<g id="node20" class="node">
<title>ellipsis__90</title>
<ellipse fill="#f1f3f6" stroke="#9aa4b2" stroke-width="0.8" stroke-dasharray="5,2" cx="502.1" cy="-48" rx="211.83" ry="18"/>
<text xml:space="preserve" text-anchor="middle" x="502.1" y="-44.33" font-family="Helvetica,sans-Serif" font-size="9.00">...\n4 hidden branches\n224 hidden nodes\nBlock I60&#45;I69, Block I70&#45;I79, Block I80&#45;I89, …</text>
</g>
<!-- 90&#45;&gt;ellipsis__90 -->
<g id="edge7" class="edge">
<title>90&#45;&gt;ellipsis__90</title>
<path fill="none" stroke="#9aa4b2" stroke-width="0.7" stroke-dasharray="5,2" d="M141.85,-280.42C159.98,-235.21 209.92,-127.34 290.27,-78 301.71,-70.98 314.15,-65.34 327.07,-60.84"/>
<polygon fill="#9aa4b2" stroke="#9aa4b2" stroke-width="0.7" points="327.44,-62.56 331.63,-59.32 326.33,-59.24 327.44,-62.56"/>
</g>
<!-- 40120 -->
<g id="node3" class="node">
<title>40120</title>
<path fill="#4e79a7" stroke="#4f5d75" stroke-width="0.8" d="M988.52,-731.48C988.52,-731.48 811.25,-731.48 811.25,-731.48 805.25,-731.48 799.25,-725.48 799.25,-719.48 799.25,-719.48 799.25,-702.52 799.25,-702.52 799.25,-696.52 805.25,-690.52 811.25,-690.52 811.25,-690.52 988.52,-690.52 988.52,-690.52 994.52,-690.52 1000.52,-696.52 1000.52,-702.52 1000.52,-702.52 1000.52,-719.48 1000.52,-719.48 1000.52,-725.48 994.52,-731.48 988.52,-731.48"/>
<text xml:space="preserve" text-anchor="middle" x="899.89" y="-718.38" font-family="Helvetica,sans-Serif" font-size="10.00">I01</text>
<text xml:space="preserve" text-anchor="middle" x="899.89" y="-707.12" font-family="Helvetica,sans-Serif" font-size="10.00">I01 Rheumatic fever with heart involvement</text>
<text xml:space="preserve" text-anchor="middle" x="899.89" y="-695.88" font-family="Helvetica,sans-Serif" font-size="10.00">id=40120 | d=2</text>
</g>
<!-- 1130&#45;&gt;40120 -->
<g id="edge8" class="edge">
<title>1130&#45;&gt;40120</title>
<path fill="none" stroke="#4e79a7" d="M572.04,-658.97C632.99,-668.68 722.85,-682.98 792.93,-694.13"/>
<polygon fill="#4e79a7" stroke="#4e79a7" points="792.51,-695.84 797.72,-694.9 793.06,-692.38 792.51,-695.84"/>
</g>
<!-- ellipsis__1130 -->
<g id="node21" class="node">
<title>ellipsis__1130</title>
<ellipse fill="#f1f3f6" stroke="#9aa4b2" stroke-width="0.8" stroke-dasharray="5,2" cx="899.89" cy="-648" rx="119.6" ry="18"/>
<text xml:space="preserve" text-anchor="middle" x="899.89" y="-644.33" font-family="Helvetica,sans-Serif" font-size="9.00">...\n2 hidden branches\n4 hidden nodes\nI00, I02</text>
</g>
<!-- 1130&#45;&gt;ellipsis__1130 -->
<g id="edge9" class="edge">
<title>1130&#45;&gt;ellipsis__1130</title>
<path fill="none" stroke="#9aa4b2" stroke-width="0.7" stroke-dasharray="5,2" d="M572.04,-648C627.62,-648 707.22,-648 773.96,-648"/>
<polygon fill="#9aa4b2" stroke="#9aa4b2" stroke-width="0.7" points="773.9,-649.75 778.9,-648 773.9,-646.25 773.9,-649.75"/>
</g>
<!-- 40130 -->
<g id="node4" class="node">
<title>40130</title>
<path fill="#4e79a7" stroke="#4f5d75" stroke-width="0.8" d="M1298.3,-762.48C1298.3,-762.48 1165.28,-762.48 1165.28,-762.48 1159.28,-762.48 1153.28,-756.48 1153.28,-750.48 1153.28,-750.48 1153.28,-733.52 1153.28,-733.52 1153.28,-727.52 1159.28,-721.52 1165.28,-721.52 1165.28,-721.52 1298.3,-721.52 1298.3,-721.52 1304.3,-721.52 1310.3,-727.52 1310.3,-733.52 1310.3,-733.52 1310.3,-750.48 1310.3,-750.48 1310.3,-756.48 1304.3,-762.48 1298.3,-762.48"/>
<text xml:space="preserve" text-anchor="middle" x="1231.79" y="-749.38" font-family="Helvetica,sans-Serif" font-size="10.00">I010</text>
<text xml:space="preserve" text-anchor="middle" x="1231.79" y="-738.12" font-family="Helvetica,sans-Serif" font-size="10.00">I01.0 Acute rheumatic pericarditis</text>
<text xml:space="preserve" text-anchor="middle" x="1231.79" y="-726.88" font-family="Helvetica,sans-Serif" font-size="10.00">id=40130 | d=3</text>
</g>
<!-- 40120&#45;&gt;40130 -->
<g id="edge10" class="edge">
<title>40120&#45;&gt;40130</title>
<path fill="none" stroke="#4e79a7" d="M1000.76,-720.39C1047.31,-724.76 1102.09,-729.91 1146.51,-734.08"/>
<polygon fill="#4e79a7" stroke="#4e79a7" points="1146.34,-735.82 1151.48,-734.55 1146.66,-732.34 1146.34,-735.82"/>
</g>
<!-- ellipsis__40120 -->
<g id="node22" class="node">
<title>ellipsis__40120</title>
<ellipse fill="#f1f3f6" stroke="#9aa4b2" stroke-width="0.8" stroke-dasharray="5,2" cx="1231.79" cy="-679" rx="145.1" ry="18"/>
<text xml:space="preserve" text-anchor="middle" x="1231.79" y="-675.33" font-family="Helvetica,sans-Serif" font-size="9.00">...\n4 hidden branches\n4 hidden nodes\nI011, I012, I018, …</text>
</g>
<!-- 40120&#45;&gt;ellipsis__40120 -->
<g id="edge11" class="edge">
<title>40120&#45;&gt;ellipsis__40120</title>
<path fill="none" stroke="#9aa4b2" stroke-width="0.7" stroke-dasharray="5,2" d="M1000.76,-701.31C1035.33,-697.96 1074.43,-694.17 1110.46,-690.67"/>
<polygon fill="#9aa4b2" stroke="#9aa4b2" stroke-width="0.7" points="1110.35,-692.44 1115.16,-690.22 1110.01,-688.96 1110.35,-692.44"/>
</g>
<!-- 40210 -->
<g id="node6" class="node">
<title>40210</title>
<path fill="#f28e2b" stroke="#4f5d75" stroke-width="0.8" d="M973.15,-605.48C973.15,-605.48 826.63,-605.48 826.63,-605.48 820.63,-605.48 814.63,-599.48 814.63,-593.48 814.63,-593.48 814.63,-576.52 814.63,-576.52 814.63,-570.52 820.63,-564.52 826.63,-564.52 826.63,-564.52 973.15,-564.52 973.15,-564.52 979.15,-564.52 985.15,-570.52 985.15,-576.52 985.15,-576.52 985.15,-593.48 985.15,-593.48 985.15,-599.48 979.15,-605.48 973.15,-605.48"/>
<text xml:space="preserve" text-anchor="middle" x="899.89" y="-592.38" font-family="Helvetica,sans-Serif" font-size="10.00">I05</text>
<text xml:space="preserve" text-anchor="middle" x="899.89" y="-581.12" font-family="Helvetica,sans-Serif" font-size="10.00">I05 Rheumatic mitral valve diseases</text>
<text xml:space="preserve" text-anchor="middle" x="899.89" y="-569.88" font-family="Helvetica,sans-Serif" font-size="10.00">id=40210 | d=2</text>
</g>
<!-- 1140&#45;&gt;40210 -->
<g id="edge12" class="edge">
<title>1140&#45;&gt;40210</title>
<path fill="none" stroke="#f28e2b" d="M597.65,-537.05C661.43,-547.2 745.12,-560.52 808.1,-570.55"/>
<polygon fill="#f28e2b" stroke="#f28e2b" points="807.8,-572.27 813.02,-571.33 808.35,-568.82 807.8,-572.27"/>
</g>
<!-- ellipsis__1140 -->
<g id="node23" class="node">
<title>ellipsis__1140</title>
<ellipse fill="#f1f3f6" stroke="#9aa4b2" stroke-width="0.8" stroke-dasharray="5,2" cx="899.89" cy="-522" rx="140" ry="18"/>
<text xml:space="preserve" text-anchor="middle" x="899.89" y="-518.33" font-family="Helvetica,sans-Serif" font-size="9.00">...\n4 hidden branches\n25 hidden nodes\nI06, I07, I08, …</text>
</g>
<!-- 1140&#45;&gt;ellipsis__1140 -->
<g id="edge13" class="edge">
<title>1140&#45;&gt;ellipsis__1140</title>
<path fill="none" stroke="#9aa4b2" stroke-width="0.7" stroke-dasharray="5,2" d="M597.65,-522C644.33,-522 701.67,-522 753.75,-522"/>
<polygon fill="#9aa4b2" stroke="#9aa4b2" stroke-width="0.7" points="753.69,-523.75 758.69,-522 753.69,-520.25 753.69,-523.75"/>
</g>
<!-- 40220 -->
<g id="node7" class="node">
<title>40220</title>
<path fill="#f28e2b" stroke="#4f5d75" stroke-width="0.8" d="M1269.8,-636.48C1269.8,-636.48 1193.78,-636.48 1193.78,-636.48 1187.78,-636.48 1181.78,-630.48 1181.78,-624.48 1181.78,-624.48 1181.78,-607.52 1181.78,-607.52 1181.78,-601.52 1187.78,-595.52 1193.78,-595.52 1193.78,-595.52 1269.8,-595.52 1269.8,-595.52 1275.8,-595.52 1281.8,-601.52 1281.8,-607.52 1281.8,-607.52 1281.8,-624.48 1281.8,-624.48 1281.8,-630.48 1275.8,-636.48 1269.8,-636.48"/>
<text xml:space="preserve" text-anchor="middle" x="1231.79" y="-623.38" font-family="Helvetica,sans-Serif" font-size="10.00">I050</text>
<text xml:space="preserve" text-anchor="middle" x="1231.79" y="-612.12" font-family="Helvetica,sans-Serif" font-size="10.00">I05.0 Mitral stenosis</text>
<text xml:space="preserve" text-anchor="middle" x="1231.79" y="-600.88" font-family="Helvetica,sans-Serif" font-size="10.00">id=40220 | d=3</text>
</g>
<!-- 40210&#45;&gt;40220 -->
<g id="edge14" class="edge">
<title>40210&#45;&gt;40220</title>
<path fill="none" stroke="#f28e2b" d="M985.42,-592.94C1045.22,-598.56 1123.7,-605.94 1175.61,-610.82"/>
<polygon fill="#f28e2b" stroke="#f28e2b" points="1175.16,-612.53 1180.3,-611.26 1175.49,-609.05 1175.16,-612.53"/>
</g>
<!-- ellipsis__40210 -->
<g id="node24" class="node">
<title>ellipsis__40210</title>
<ellipse fill="#f1f3f6" stroke="#9aa4b2" stroke-width="0.8" stroke-dasharray="5,2" cx="1231.79" cy="-553" rx="145.95" ry="18"/>
<text xml:space="preserve" text-anchor="middle" x="1231.79" y="-549.33" font-family="Helvetica,sans-Serif" font-size="9.00">...\n4 hidden branches\n4 hidden nodes\nI051, I052, I058, …</text>
</g>
<!-- 40210&#45;&gt;ellipsis__40210 -->
<g id="edge15" class="edge">
<title>40210&#45;&gt;ellipsis__40210</title>
<path fill="none" stroke="#9aa4b2" stroke-width="0.7" stroke-dasharray="5,2" d="M985.42,-576.8C1023.25,-573.13 1068.56,-568.74 1109.88,-564.73"/>
<polygon fill="#9aa4b2" stroke="#9aa4b2" stroke-width="0.7" points="1109.83,-566.49 1114.63,-564.27 1109.49,-563.01 1109.83,-566.49"/>
</g>
<!-- 40530 -->
<g id="node9" class="node">
<title>40530</title>
<path fill="#e15759" stroke="#4f5d75" stroke-width="0.8" d="M961.52,-479.48C961.52,-479.48 838.25,-479.48 838.25,-479.48 832.25,-479.48 826.25,-473.48 826.25,-467.48 826.25,-467.48 826.25,-450.52 826.25,-450.52 826.25,-444.52 832.25,-438.52 838.25,-438.52 838.25,-438.52 961.52,-438.52 961.52,-438.52 967.52,-438.52 973.52,-444.52 973.52,-450.52 973.52,-450.52 973.52,-467.48 973.52,-467.48 973.52,-473.48 967.52,-479.48 961.52,-479.48"/>
<text xml:space="preserve" text-anchor="middle" x="899.89" y="-466.38" font-family="Helvetica,sans-Serif" font-size="10.00">I11</text>
<text xml:space="preserve" text-anchor="middle" x="899.89" y="-455.12" font-family="Helvetica,sans-Serif" font-size="10.00">I11 Hypertensive heart disease</text>
<text xml:space="preserve" text-anchor="middle" x="899.89" y="-443.88" font-family="Helvetica,sans-Serif" font-size="10.00">id=40530 | d=2</text>
</g>
<!-- 1150&#45;&gt;40530 -->
<g id="edge16" class="edge">
<title>1150&#45;&gt;40530</title>
<path fill="none" stroke="#e15759" d="M574.32,-407.34C643.34,-418.32 747.84,-434.96 819.5,-446.36"/>
<polygon fill="#e15759" stroke="#e15759" points="819.19,-448.09 824.41,-447.14 819.74,-444.63 819.19,-448.09"/>
</g>
<!-- ellipsis__1150 -->
<g id="node25" class="node">
<title>ellipsis__1150</title>
<ellipse fill="#f1f3f6" stroke="#9aa4b2" stroke-width="0.8" stroke-dasharray="5,2" cx="899.89" cy="-396" rx="140" ry="18"/>
<text xml:space="preserve" text-anchor="middle" x="899.89" y="-392.32" font-family="Helvetica,sans-Serif" font-size="9.00">...\n4 hidden branches\n15 hidden nodes\nI10, I12, I13, …</text>
</g>
<!-- 1150&#45;&gt;ellipsis__1150 -->
<g id="edge17" class="edge">
<title>1150&#45;&gt;ellipsis__1150</title>
<path fill="none" stroke="#9aa4b2" stroke-width="0.7" stroke-dasharray="5,2" d="M574.32,-396C624.23,-396 692.69,-396 753.87,-396"/>
<polygon fill="#9aa4b2" stroke="#9aa4b2" stroke-width="0.7" points="753.71,-397.75 758.71,-396 753.71,-394.25 753.71,-397.75"/>
</g>
<!-- 40540 -->
<g id="node10" class="node">
<title>40540</title>
<path fill="#e15759" stroke="#4f5d75" stroke-width="0.8" d="M1363.17,-510.48C1363.17,-510.48 1100.4,-510.48 1100.4,-510.48 1094.4,-510.48 1088.4,-504.48 1088.4,-498.48 1088.4,-498.48 1088.4,-481.52 1088.4,-481.52 1088.4,-475.52 1094.4,-469.52 1100.4,-469.52 1100.4,-469.52 1363.17,-469.52 1363.17,-469.52 1369.17,-469.52 1375.17,-475.52 1375.17,-481.52 1375.17,-481.52 1375.17,-498.48 1375.17,-498.48 1375.17,-504.48 1369.17,-510.48 1363.17,-510.48"/>
<text xml:space="preserve" text-anchor="middle" x="1231.79" y="-497.38" font-family="Helvetica,sans-Serif" font-size="10.00">I110</text>
<text xml:space="preserve" text-anchor="middle" x="1231.79" y="-486.12" font-family="Helvetica,sans-Serif" font-size="10.00">I11.0 Hypertensive heart disease with (congestive) heart failure</text>
<text xml:space="preserve" text-anchor="middle" x="1231.79" y="-474.88" font-family="Helvetica,sans-Serif" font-size="10.00">id=40540 | d=3</text>
</g>
<!-- 40530&#45;&gt;40540 -->
<g id="edge18" class="edge">
<title>40530&#45;&gt;40540</title>
<path fill="none" stroke="#e15759" d="M973.69,-465.84C1005.66,-468.85 1044.43,-472.49 1082.07,-476.02"/>
<polygon fill="#e15759" stroke="#e15759" points="1081.45,-477.72 1086.59,-476.45 1081.77,-474.24 1081.45,-477.72"/>
</g>
<!-- ellipsis__40530 -->
<g id="node26" class="node">
<title>ellipsis__40530</title>
<ellipse fill="#f1f3f6" stroke="#9aa4b2" stroke-width="0.8" stroke-dasharray="5,2" cx="1231.79" cy="-427" rx="111.94" ry="18"/>
<text xml:space="preserve" text-anchor="middle" x="1231.79" y="-423.32" font-family="Helvetica,sans-Serif" font-size="9.00">...\n1 hidden branches\n1 hidden nodes\nI119</text>
</g>
<!-- 40530&#45;&gt;ellipsis__40530 -->
<g id="edge19" class="edge">
<title>40530&#45;&gt;ellipsis__40530</title>
<path fill="none" stroke="#9aa4b2" stroke-width="0.7" stroke-dasharray="5,2" d="M973.69,-451.94C1019.37,-447.51 1078.93,-441.73 1129.22,-436.85"/>
<polygon fill="#9aa4b2" stroke="#9aa4b2" stroke-width="0.7" points="1129.13,-438.62 1133.93,-436.39 1128.79,-435.14 1129.13,-438.62"/>
</g>
<!-- 40700 -->
<g id="node12" class="node">
<title>40700</title>
<path fill="#76b7b2" stroke="#4f5d75" stroke-width="0.8" d="M935.27,-353.48C935.27,-353.48 864.5,-353.48 864.5,-353.48 858.5,-353.48 852.5,-347.48 852.5,-341.48 852.5,-341.48 852.5,-324.52 852.5,-324.52 852.5,-318.52 858.5,-312.52 864.5,-312.52 864.5,-312.52 935.27,-312.52 935.27,-312.52 941.27,-312.52 947.27,-318.52 947.27,-324.52 947.27,-324.52 947.27,-341.48 947.27,-341.48 947.27,-347.48 941.27,-353.48 935.27,-353.48"/>
<text xml:space="preserve" text-anchor="middle" x="899.89" y="-340.38" font-family="Helvetica,sans-Serif" font-size="10.00">I20</text>
<text xml:space="preserve" text-anchor="middle" x="899.89" y="-329.12" font-family="Helvetica,sans-Serif" font-size="10.00">I20 Angina pectoris</text>
<text xml:space="preserve" text-anchor="middle" x="899.89" y="-317.88" font-family="Helvetica,sans-Serif" font-size="10.00">id=40700 | d=2</text>
</g>
<!-- 1160&#45;&gt;40700 -->
<g id="edge20" class="edge">
<title>1160&#45;&gt;40700</title>
<path fill="none" stroke="#76b7b2" d="M580.36,-307.25C658.59,-313.57 777.51,-323.19 845.75,-328.7"/>
<polygon fill="#76b7b2" stroke="#76b7b2" points="845.56,-330.44 850.68,-329.1 845.84,-326.96 845.56,-330.44"/>
</g>
<!-- ellipsis__1160 -->
<g id="node27" class="node">
<title>ellipsis__1160</title>
<ellipse fill="#f1f3f6" stroke="#9aa4b2" stroke-width="0.8" stroke-dasharray="5,2" cx="899.89" cy="-270" rx="140" ry="18"/>
<text xml:space="preserve" text-anchor="middle" x="899.89" y="-266.32" font-family="Helvetica,sans-Serif" font-size="9.00">...\n5 hidden branches\n37 hidden nodes\nI21, I22, I23, …</text>
</g>
<!-- 1160&#45;&gt;ellipsis__1160 -->
<g id="edge21" class="edge">
<title>1160&#45;&gt;ellipsis__1160</title>
<path fill="none" stroke="#9aa4b2" stroke-width="0.7" stroke-dasharray="5,2" d="M580.36,-294.95C635.28,-290.65 710.24,-284.78 773.65,-279.81"/>
<polygon fill="#9aa4b2" stroke="#9aa4b2" stroke-width="0.7" points="773.46,-281.58 778.3,-279.44 773.18,-278.09 773.46,-281.58"/>
</g>
<!-- 40710 -->
<g id="node13" class="node">
<title>40710</title>
<path fill="#76b7b2" stroke="#4f5d75" stroke-width="0.8" d="M1273.17,-384.48C1273.17,-384.48 1190.4,-384.48 1190.4,-384.48 1184.4,-384.48 1178.4,-378.48 1178.4,-372.48 1178.4,-372.48 1178.4,-355.52 1178.4,-355.52 1178.4,-349.52 1184.4,-343.52 1190.4,-343.52 1190.4,-343.52 1273.17,-343.52 1273.17,-343.52 1279.17,-343.52 1285.17,-349.52 1285.17,-355.52 1285.17,-355.52 1285.17,-372.48 1285.17,-372.48 1285.17,-378.48 1279.17,-384.48 1273.17,-384.48"/>
<text xml:space="preserve" text-anchor="middle" x="1231.79" y="-371.38" font-family="Helvetica,sans-Serif" font-size="10.00">I200</text>
<text xml:space="preserve" text-anchor="middle" x="1231.79" y="-360.12" font-family="Helvetica,sans-Serif" font-size="10.00">I20.0 Unstable angina</text>
<text xml:space="preserve" text-anchor="middle" x="1231.79" y="-348.88" font-family="Helvetica,sans-Serif" font-size="10.00">id=40710 | d=3</text>
</g>
<!-- 40700&#45;&gt;40710 -->
<g id="edge22" class="edge">
<title>40700&#45;&gt;40710</title>
<path fill="none" stroke="#76b7b2" d="M947.46,-337.38C1006.27,-342.9 1107.52,-352.42 1171.71,-358.45"/>
<polygon fill="#76b7b2" stroke="#76b7b2" points="1171.54,-360.19 1176.68,-358.92 1171.87,-356.71 1171.54,-360.19"/>
</g>
<!-- ellipsis__40700 -->
<g id="node28" class="node">
<title>ellipsis__40700</title>
<ellipse fill="#f1f3f6" stroke="#9aa4b2" stroke-width="0.8" stroke-dasharray="5,2" cx="1231.79" cy="-301" rx="138.3" ry="18"/>
<text xml:space="preserve" text-anchor="middle" x="1231.79" y="-297.32" font-family="Helvetica,sans-Serif" font-size="9.00">...\n3 hidden branches\n3 hidden nodes\nI201, I208, I209</text>
</g>
<!-- 40700&#45;&gt;ellipsis__40700 -->
<g id="edge23" class="edge">
<title>40700&#45;&gt;ellipsis__40700</title>
<path fill="none" stroke="#9aa4b2" stroke-width="0.7" stroke-dasharray="5,2" d="M947.46,-328.48C990.56,-324.3 1056.45,-317.91 1113.84,-312.34"/>
<polygon fill="#9aa4b2" stroke="#9aa4b2" stroke-width="0.7" points="1113.86,-314.1 1118.67,-311.88 1113.53,-310.62 1113.86,-314.1"/>
</g>
<!-- 41120 -->
<g id="node15" class="node">
<title>41120</title>
<path fill="#59a14f" stroke="#4f5d75" stroke-width="0.8" d="M947.65,-227.47C947.65,-227.47 852.13,-227.47 852.13,-227.47 846.13,-227.47 840.13,-221.47 840.13,-215.47 840.13,-215.47 840.13,-198.53 840.13,-198.53 840.13,-192.53 846.13,-186.53 852.13,-186.53 852.13,-186.53 947.65,-186.53 947.65,-186.53 953.65,-186.53 959.65,-192.53 959.65,-198.53 959.65,-198.53 959.65,-215.47 959.65,-215.47 959.65,-221.47 953.65,-227.47 947.65,-227.47"/>
<text xml:space="preserve" text-anchor="middle" x="899.89" y="-214.38" font-family="Helvetica,sans-Serif" font-size="10.00">I26</text>
<text xml:space="preserve" text-anchor="middle" x="899.89" y="-203.12" font-family="Helvetica,sans-Serif" font-size="10.00">I26 Pulmonary embolism</text>
<text xml:space="preserve" text-anchor="middle" x="899.89" y="-191.88" font-family="Helvetica,sans-Serif" font-size="10.00">id=41120 | d=2</text>
</g>
<!-- 1170&#45;&gt;41120 -->
<g id="edge24" class="edge">
<title>1170&#45;&gt;41120</title>
<path fill="none" stroke="#59a14f" d="M662.37,-207C722.28,-207 787.1,-207 833.7,-207"/>
<polygon fill="#59a14f" stroke="#59a14f" points="833.64,-208.75 838.64,-207 833.64,-205.25 833.64,-208.75"/>
</g>
<!-- ellipsis__1170 -->
<g id="node29" class="node">
<title>ellipsis__1170</title>
<ellipse fill="#f1f3f6" stroke="#9aa4b2" stroke-width="0.8" stroke-dasharray="5,2" cx="899.89" cy="-144" rx="121.72" ry="18"/>
<text xml:space="preserve" text-anchor="middle" x="899.89" y="-140.32" font-family="Helvetica,sans-Serif" font-size="9.00">...\n2 hidden branches\n11 hidden nodes\nI27, I28</text>
</g>
<!-- 1170&#45;&gt;ellipsis__1170 -->
<g id="edge25" class="edge">
<title>1170&#45;&gt;ellipsis__1170</title>
<path fill="none" stroke="#9aa4b2" stroke-width="0.7" stroke-dasharray="5,2" d="M634.07,-186.15C691.72,-176.98 757.96,-166.43 809.77,-158.18"/>
<polygon fill="#9aa4b2" stroke="#9aa4b2" stroke-width="0.7" points="809.99,-159.92 814.65,-157.41 809.44,-156.47 809.99,-159.92"/>
</g>
<!-- 41130 -->
<g id="node16" class="node">
<title>41130</title>
<path fill="#59a14f" stroke="#4f5d75" stroke-width="0.8" d="M1363.92,-258.48C1363.92,-258.48 1099.65,-258.48 1099.65,-258.48 1093.65,-258.48 1087.65,-252.48 1087.65,-246.48 1087.65,-246.48 1087.65,-229.53 1087.65,-229.53 1087.65,-223.53 1093.65,-217.53 1099.65,-217.53 1099.65,-217.53 1363.92,-217.53 1363.92,-217.53 1369.92,-217.53 1375.92,-223.53 1375.92,-229.53 1375.92,-229.53 1375.92,-246.48 1375.92,-246.48 1375.92,-252.48 1369.92,-258.48 1363.92,-258.48"/>
<text xml:space="preserve" text-anchor="middle" x="1231.79" y="-245.38" font-family="Helvetica,sans-Serif" font-size="10.00">I260</text>
<text xml:space="preserve" text-anchor="middle" x="1231.79" y="-234.12" font-family="Helvetica,sans-Serif" font-size="10.00">I26.0 Pulmonary embolism with mention of acute cor pulmonale</text>
<text xml:space="preserve" text-anchor="middle" x="1231.79" y="-222.88" font-family="Helvetica,sans-Serif" font-size="10.00">id=41130 | d=3</text>
</g>
<!-- 41120&#45;&gt;41130 -->
<g id="edge26" class="edge">
<title>41120&#45;&gt;41130</title>
<path fill="none" stroke="#59a14f" d="M959.87,-212.54C993.78,-215.73 1038.07,-219.89 1080.97,-223.92"/>
<polygon fill="#59a14f" stroke="#59a14f" points="1080.64,-225.65 1085.78,-224.37 1080.97,-222.16 1080.64,-225.65"/>
</g>
<!-- ellipsis__41120 -->
<g id="node30" class="node">
<title>ellipsis__41120</title>
<ellipse fill="#f1f3f6" stroke="#9aa4b2" stroke-width="0.8" stroke-dasharray="5,2" cx="1231.79" cy="-175" rx="112.79" ry="18"/>
<text xml:space="preserve" text-anchor="middle" x="1231.79" y="-171.32" font-family="Helvetica,sans-Serif" font-size="9.00">...\n1 hidden branches\n1 hidden nodes\nI269</text>
</g>
<!-- 41120&#45;&gt;ellipsis__41120 -->
<g id="edge27" class="edge">
<title>41120&#45;&gt;ellipsis__41120</title>
<path fill="none" stroke="#9aa4b2" stroke-width="0.7" stroke-dasharray="5,2" d="M959.87,-201.28C1006.63,-196.74 1073.09,-190.3 1128.49,-184.92"/>
<polygon fill="#9aa4b2" stroke="#9aa4b2" stroke-width="0.7" points="1128.63,-186.67 1133.44,-184.44 1128.3,-183.18 1128.63,-186.67"/>
</g>
<!-- 41260 -->
<g id="node18" class="node">
<title>41260</title>
<path fill="#edc948" stroke="#4f5d75" stroke-width="0.8" d="M939.4,-101.47C939.4,-101.47 860.38,-101.47 860.38,-101.47 854.38,-101.47 848.38,-95.47 848.38,-89.47 848.38,-89.47 848.38,-72.53 848.38,-72.53 848.38,-66.53 854.38,-60.52 860.38,-60.52 860.38,-60.52 939.4,-60.52 939.4,-60.52 945.4,-60.52 951.4,-66.52 951.4,-72.52 951.4,-72.52 951.4,-89.47 951.4,-89.47 951.4,-95.47 945.4,-101.47 939.4,-101.47"/>
<text xml:space="preserve" text-anchor="middle" x="899.89" y="-88.38" font-family="Helvetica,sans-Serif" font-size="10.00">I30</text>
<text xml:space="preserve" text-anchor="middle" x="899.89" y="-77.12" font-family="Helvetica,sans-Serif" font-size="10.00">I30 Acute pericarditis</text>
<text xml:space="preserve" text-anchor="middle" x="899.89" y="-65.88" font-family="Helvetica,sans-Serif" font-size="10.00">id=41260 | d=2</text>
</g>
<!-- 1180&#45;&gt;41260 -->
<g id="edge28" class="edge">
<title>1180&#45;&gt;41260</title>
<path fill="none" stroke="#edc948" d="M586.56,-104.67C663.23,-98.86 774.84,-90.4 841.8,-85.33"/>
<polygon fill="#edc948" stroke="#edc948" points="841.78,-87.08 846.63,-84.96 841.52,-83.59 841.78,-87.08"/>
</g>
<!-- ellipsis__1180 -->
<g id="node31" class="node">
<title>ellipsis__1180</title>
<ellipse fill="#f1f3f6" stroke="#9aa4b2" stroke-width="0.8" stroke-dasharray="5,2" cx="899.89" cy="-18" rx="145.95" ry="18"/>
<text xml:space="preserve" text-anchor="middle" x="899.89" y="-14.32" font-family="Helvetica,sans-Serif" font-size="9.00">...\n22 hidden branches\n135 hidden nodes\nI31, I32, I33, …</text>
</g>
<!-- 1180&#45;&gt;ellipsis__1180 -->
<g id="edge29" class="edge">
<title>1180&#45;&gt;ellipsis__1180</title>
<path fill="none" stroke="#9aa4b2" stroke-width="0.7" stroke-dasharray="5,2" d="M587.01,-107.26C626.74,-103.16 674.09,-94.82 713.94,-78 734.41,-69.36 733.68,-57.14 753.94,-48 767.38,-41.94 782.08,-37.08 796.8,-33.2"/>
<polygon fill="#9aa4b2" stroke="#9aa4b2" stroke-width="0.7" points="797.22,-34.9 801.63,-31.97 796.35,-31.51 797.22,-34.9"/>
</g>
<!-- 41270 -->
<g id="node19" class="node">
<title>41270</title>
<path fill="#edc948" stroke="#4f5d75" stroke-width="0.8" d="M1323.8,-132.47C1323.8,-132.47 1139.78,-132.47 1139.78,-132.47 1133.78,-132.47 1127.78,-126.47 1127.78,-120.47 1127.78,-120.47 1127.78,-103.53 1127.78,-103.53 1127.78,-97.53 1133.78,-91.53 1139.78,-91.53 1139.78,-91.53 1323.8,-91.53 1323.8,-91.53 1329.8,-91.53 1335.8,-97.53 1335.8,-103.53 1335.8,-103.53 1335.8,-120.47 1335.8,-120.47 1335.8,-126.47 1329.8,-132.47 1323.8,-132.47"/>
<text xml:space="preserve" text-anchor="middle" x="1231.79" y="-119.38" font-family="Helvetica,sans-Serif" font-size="10.00">I300</text>
<text xml:space="preserve" text-anchor="middle" x="1231.79" y="-108.12" font-family="Helvetica,sans-Serif" font-size="10.00">I30.0 Acute nonspecific idiopathic pericarditis</text>
<text xml:space="preserve" text-anchor="middle" x="1231.79" y="-96.88" font-family="Helvetica,sans-Serif" font-size="10.00">id=41270 | d=3</text>
</g>
<!-- 41260&#45;&gt;41270 -->
<g id="edge30" class="edge">
<title>41260&#45;&gt;41270</title>
<path fill="none" stroke="#edc948" d="M951.71,-85.78C996.79,-90.01 1064.18,-96.34 1121.44,-101.72"/>
<polygon fill="#edc948" stroke="#edc948" points="1121.01,-103.44 1126.15,-102.17 1121.33,-99.96 1121.01,-103.44"/>
</g>
<!-- ellipsis__41260 -->
<g id="node32" class="node">
<title>ellipsis__41260</title>
<ellipse fill="#f1f3f6" stroke="#9aa4b2" stroke-width="0.8" stroke-dasharray="5,2" cx="1231.79" cy="-49" rx="138.3" ry="18"/>
<text xml:space="preserve" text-anchor="middle" x="1231.79" y="-45.33" font-family="Helvetica,sans-Serif" font-size="9.00">...\n3 hidden branches\n3 hidden nodes\nI301, I308, I309</text>
</g>
<!-- 41260&#45;&gt;ellipsis__41260 -->
<g id="edge31" class="edge">
<title>41260&#45;&gt;ellipsis__41260</title>
<path fill="none" stroke="#9aa4b2" stroke-width="0.7" stroke-dasharray="5,2" d="M951.71,-76.07C994.87,-71.88 1058.48,-65.71 1114.07,-60.32"/>
<polygon fill="#9aa4b2" stroke="#9aa4b2" stroke-width="0.7" points="1113.91,-62.1 1118.72,-59.87 1113.57,-58.61 1113.91,-62.1"/>
</g>
<!-- legend_0 -->
<g id="node33" class="node">
<title>legend_0</title>
<path fill="#4e79a7" stroke="#4f5d75" stroke-width="0.8" d="M222.89,-382C222.89,-382 43.38,-382 43.38,-382 37.37,-382 31.37,-376 31.37,-370 31.37,-370 31.37,-358 31.37,-358 31.37,-352 37.37,-346 43.37,-346 43.37,-346 222.89,-346 222.89,-346 228.89,-346 234.89,-352 234.89,-358 234.89,-358 234.89,-370 234.89,-370 234.89,-376 228.89,-382 222.89,-382"/>
<text xml:space="preserve" text-anchor="middle" x="133.13" y="-360.12" font-family="Helvetica,sans-Serif" font-size="10.00">Block I00&#45;I02: I00&#45;I02 Acute rheumatic fever</text>
</g>
<!-- legend_1 -->
<g id="node34" class="node">
<title>legend_1</title>
<path fill="#f28e2b" stroke="#4f5d75" stroke-width="0.8" d="M236.39,-443C236.39,-443 29.88,-443 29.88,-443 23.88,-443 17.88,-437 17.88,-431 17.88,-431 17.88,-419 17.88,-419 17.88,-413 23.88,-407 29.88,-407 29.88,-407 236.39,-407 236.39,-407 242.39,-407 248.39,-413 248.39,-419 248.39,-419 248.39,-431 248.39,-431 248.39,-437 242.39,-443 236.39,-443"/>
<text xml:space="preserve" text-anchor="middle" x="133.13" y="-421.12" font-family="Helvetica,sans-Serif" font-size="10.00">Block I05&#45;I09: I05&#45;I09 Chronic rheumatic heart d…</text>
</g>
<!-- legend_2 -->
<g id="node35" class="node">
<title>legend_2</title>
<path fill="#e15759" stroke="#4f5d75" stroke-width="0.8" d="M225.14,-504C225.14,-504 41.12,-504 41.12,-504 35.13,-504 29.12,-498 29.12,-492 29.12,-492 29.12,-480 29.12,-480 29.12,-474 35.12,-468 41.12,-468 41.12,-468 225.14,-468 225.14,-468 231.14,-468 237.14,-474 237.14,-480 237.14,-480 237.14,-492 237.14,-492 237.14,-498 231.14,-504 225.14,-504"/>
<text xml:space="preserve" text-anchor="middle" x="133.13" y="-482.12" font-family="Helvetica,sans-Serif" font-size="10.00">Block I10&#45;I15: I10&#45;I15 Hypertensive diseases</text>
</g>
<!-- legend_3 -->
<g id="node36" class="node">
<title>legend_3</title>
<path fill="#76b7b2" stroke="#4f5d75" stroke-width="0.8" d="M231.15,-565C231.15,-565 35.12,-565 35.12,-565 29.12,-565 23.12,-559 23.12,-553 23.12,-553 23.12,-541 23.12,-541 23.12,-535 29.12,-529 35.12,-529 35.12,-529 231.15,-529 231.15,-529 237.15,-529 243.15,-535 243.15,-541 243.15,-541 243.15,-553 243.15,-553 243.15,-559 237.15,-565 231.15,-565"/>
<text xml:space="preserve" text-anchor="middle" x="133.13" y="-543.12" font-family="Helvetica,sans-Serif" font-size="10.00">Block I20&#45;I25: I20&#45;I25 Ischaemic heart diseases</text>
</g>
<!-- legend_4 -->
<g id="node37" class="node">
<title>legend_4</title>
<path fill="#59a14f" stroke="#4f5d75" stroke-width="0.8" d="M238.27,-626C238.27,-626 28,-626 28,-626 22,-626 16,-620 16,-614 16,-614 16,-602 16,-602 16,-596 22,-590 28,-590 28,-590 238.27,-590 238.27,-590 244.27,-590 250.27,-596 250.27,-602 250.27,-602 250.27,-614 250.27,-614 250.27,-620 244.27,-626 238.27,-626"/>
<text xml:space="preserve" text-anchor="middle" x="133.13" y="-604.12" font-family="Helvetica,sans-Serif" font-size="10.00">Block I26&#45;I28: I26&#45;I28 Pulmonary heart disease a…</text>
</g>
<!-- legend_5 -->
<g id="node38" class="node">
<title>legend_5</title>
<path fill="#edc948" stroke="#4f5d75" stroke-width="0.8" d="M234.52,-687C234.52,-687 31.75,-687 31.75,-687 25.75,-687 19.75,-681 19.75,-675 19.75,-675 19.75,-663 19.75,-663 19.75,-657 25.75,-651 31.75,-651 31.75,-651 234.52,-651 234.52,-651 240.52,-651 246.52,-657 246.52,-663 246.52,-663 246.52,-675 246.52,-675 246.52,-681 240.52,-687 234.52,-687"/>
<text xml:space="preserve" text-anchor="middle" x="133.13" y="-665.12" font-family="Helvetica,sans-Serif" font-size="10.00">Block I30&#45;I52: I30&#45;I52 Other forms of heart dise…</text>
</g>
<!-- legend_6 -->
<g id="node39" class="node">
<title>legend_6</title>
<path fill="#b07aa1" stroke="#4f5d75" stroke-width="0.8" d="M231.89,-748C231.89,-748 34.38,-748 34.38,-748 28.37,-748 22.37,-742 22.37,-736 22.37,-736 22.37,-724 22.37,-724 22.37,-718 28.37,-712 34.37,-712 34.37,-712 231.89,-712 231.89,-712 237.89,-712 243.89,-718 243.89,-724 243.89,-724 243.89,-736 243.89,-736 243.89,-742 237.89,-748 231.89,-748"/>
<text xml:space="preserve" text-anchor="middle" x="133.13" y="-726.12" font-family="Helvetica,sans-Serif" font-size="10.00">Block I60&#45;I69: I60&#45;I69 Cerebrovascular diseases</text>
</g>
<!-- legend_7 -->
<g id="node40" class="node">
<title>legend_7</title>
<path fill="#ff9da7" stroke="#4f5d75" stroke-width="0.8" d="M232.64,-809C232.64,-809 33.62,-809 33.62,-809 27.63,-809 21.62,-803 21.62,-797 21.62,-797 21.62,-785 21.62,-785 21.62,-779 27.62,-773 33.62,-773 33.62,-773 232.64,-773 232.64,-773 238.64,-773 244.64,-779 244.64,-785 244.64,-785 244.64,-797 244.64,-797 244.64,-803 238.64,-809 232.64,-809"/>
<text xml:space="preserve" text-anchor="middle" x="133.13" y="-787.12" font-family="Helvetica,sans-Serif" font-size="10.00">Block I70&#45;I79: I70&#45;I79 Diseases of arteries, art…</text>
</g>
<!-- legend_8 -->
<g id="node41" class="node">
<title>legend_8</title>
<path fill="#9c755f" stroke="#4f5d75" stroke-width="0.8" d="M238.27,-870C238.27,-870 28,-870 28,-870 22,-870 16,-864 16,-858 16,-858 16,-846 16,-846 16,-840 22,-834 28,-834 28,-834 238.27,-834 238.27,-834 244.27,-834 250.27,-840 250.27,-846 250.27,-846 250.27,-858 250.27,-858 250.27,-864 244.27,-870 238.27,-870"/>
<text xml:space="preserve" text-anchor="middle" x="133.13" y="-848.12" font-family="Helvetica,sans-Serif" font-size="10.00">Block I80&#45;I89: I80&#45;I89 Diseases of veins, lympha…</text>
</g>
<!-- legend_9 -->
<g id="node42" class="node">
<title>legend_9</title>
<path fill="#bab0ab" stroke="#4f5d75" stroke-width="0.8" d="M235.64,-931C235.64,-931 30.62,-931 30.62,-931 24.62,-931 18.62,-925 18.62,-919 18.62,-919 18.62,-907 18.62,-907 18.62,-901 24.62,-895 30.62,-895 30.62,-895 235.64,-895 235.64,-895 241.64,-895 247.64,-901 247.64,-907 247.64,-907 247.64,-919 247.64,-919 247.64,-925 241.64,-931 235.64,-931"/>
<text xml:space="preserve" text-anchor="middle" x="133.13" y="-909.12" font-family="Helvetica,sans-Serif" font-size="10.00">Block I95&#45;I99: I95&#45;I99 Other and unspecified dis…</text>
</g>
</g>
</svg>
